<svg width="24" height="21" viewBox="0 0 24 21" fill="none" xmlns="http://www.w3.org/2000/svg">
<path d="M22.1578 7.38281C21.5363 6.98766 20.7595 6.70031 19.9041 6.54234C19.7599 6.51474 19.627 6.44544 19.5219 6.34304C19.4167 6.24063 19.3439 6.10962 19.3125 5.96625C18.9441 4.34859 18.1594 2.96016 17.0086 1.90781C15.6633 0.677343 13.8848 0 12 0C10.343 0 8.8125 0.519375 7.57641 1.5C6.74156 2.16561 6.06912 3.01245 5.61 3.97641C5.55893 4.0851 5.48257 4.17999 5.38732 4.25314C5.29207 4.32629 5.18069 4.37558 5.0625 4.39687C3.79078 4.62656 2.69391 5.085 1.85578 5.74219C0.642188 6.69516 0 8.04187 0 9.6375C0 12.7969 2.62172 15 6.375 15H11.25V9.02109C11.25 8.6175 11.5603 8.27109 11.9639 8.25094C12.0653 8.24605 12.1667 8.2618 12.2618 8.29724C12.3569 8.33268 12.4439 8.38707 12.5174 8.4571C12.5909 8.52714 12.6494 8.61137 12.6894 8.70469C12.7294 8.79801 12.75 8.89847 12.75 9V15H18.5625C21.9675 15 24 13.395 24 10.7062C24 9.29765 23.363 8.14828 22.1578 7.38281Z" fill="#DDBF83"/>
<path d="M11.25 18.4416L9.52969 16.7241C9.38821 16.5869 9.19846 16.511 9.00144 16.5127C8.80443 16.5143 8.61598 16.5934 8.47682 16.7329C8.33766 16.8724 8.25897 17.061 8.25775 17.258C8.25653 17.455 8.33289 17.6446 8.47031 17.7858L11.4703 20.7806C11.6109 20.9209 11.8014 20.9997 12 20.9997C12.1986 20.9997 12.3891 20.9209 12.5297 20.7806L15.5297 17.7858C15.6671 17.6446 15.7435 17.455 15.7422 17.258C15.741 17.061 15.6623 16.8724 15.5232 16.7329C15.384 16.5934 15.1956 16.5143 14.9986 16.5127C14.8015 16.511 14.6118 16.5869 14.4703 16.7241L12.75 18.4416V15H11.25V18.4416Z" fill="#DDBF83"/>
</svg>
