<svg width="27" height="24" viewBox="0 0 27 24" fill="none" xmlns="http://www.w3.org/2000/svg">
<g clip-path="url(#clip0_7595_28524)">
<path d="M11.4998 0.503906C5.1487 0.503906 0 5.65261 0 12.0037C0 17.3967 3.71307 21.9221 8.72193 23.165V15.5181H6.35067V12.0037H8.72193V10.4894C8.72193 6.57536 10.4934 4.76114 14.3361 4.76114C15.0648 4.76114 16.3219 4.9042 16.8362 5.0468V8.23225C16.5648 8.20373 16.0933 8.18947 15.5078 8.18947C13.6222 8.18947 12.8936 8.90384 12.8936 10.7608V12.0037H16.6499L16.0045 15.5181H12.8936V23.4194C18.5879 22.7317 23.0001 17.8834 23.0001 12.0037C22.9997 5.65261 17.851 0.503906 11.4998 0.503906Z" fill="#F8F8F8"/>
</g>
<defs>
<clipPath id="clip0_7595_28524">
<rect width="22.9997" height="22.9997" fill="white" transform="translate(0 0.503906)"/>
</clipPath>
</defs>
</svg>
