<svg xmlns="http://www.w3.org/2000/svg" width="40" height="40" viewBox="0 0 40 40" fill="none">
    <path d="M21.0004 18.1003H18.6003C18.3911 18.0958 18.192 18.0095 18.0457 17.86C17.8993 17.7104 17.8174 17.5095 17.8174 17.3003C17.8174 17.091 17.8993 16.8901 18.0457 16.7405C18.192 16.591 18.3911 16.5047 18.6003 16.5002H21.0004C21.1069 16.4979 21.2128 16.5169 21.3119 16.556C21.411 16.5952 21.5012 16.6538 21.5774 16.7283C21.6535 16.8028 21.7141 16.8918 21.7554 16.99C21.7967 17.0882 21.8179 17.1937 21.8179 17.3003C21.8179 17.4068 21.7967 17.5123 21.7554 17.6105C21.7141 17.7087 21.6535 17.7977 21.5774 17.8722C21.5012 17.9467 21.411 18.0053 21.3119 18.0445C21.2128 18.0837 21.1069 18.1026 21.0004 18.1003Z" fill="white"/>
    <path d="M27.4003 16.4998C27.2952 16.4998 27.1912 16.5205 27.0941 16.5607C26.997 16.601 26.9089 16.6599 26.8346 16.7342C26.7603 16.8085 26.7014 16.8968 26.6612 16.9939C26.621 17.0909 26.6004 17.195 26.6004 17.3001V23.6999C26.6027 23.8064 26.5837 23.9124 26.5446 24.0115C26.5054 24.1105 26.4468 24.2008 26.3723 24.277C26.2978 24.3531 26.2088 24.4136 26.1106 24.4549C26.0124 24.4962 25.9069 24.5175 25.8003 24.5175C25.6938 24.5175 25.5883 24.4962 25.4901 24.4549C25.3919 24.4136 25.3029 24.3531 25.2284 24.277C25.1539 24.2008 25.0953 24.1105 25.0561 24.0115C25.017 23.9124 24.998 23.8064 25.0003 23.6999V14.4999C25.0003 13.9695 24.7896 13.4608 24.4145 13.0858C24.0395 12.7107 23.5308 12.5 23.0004 12.5H14.2001C13.9375 12.5 13.6774 12.5516 13.4347 12.6521C13.1921 12.7526 12.9716 12.8999 12.7858 13.0856C12.6001 13.2714 12.4528 13.4919 12.3523 13.7345C12.2518 13.9772 12.2001 14.2373 12.2002 14.4999V24.5002C12.2002 25.561 12.6216 26.5784 13.3717 27.3285C14.1218 28.0786 15.1392 28.5 16.2 28.5H24.2004C25.2612 28.5 26.2786 28.0786 27.0287 27.3285C27.7788 26.5784 28.2002 25.561 28.2002 24.5002V17.3001C28.2002 17.195 28.1796 17.0909 28.1394 16.9939C28.0992 16.8968 28.0403 16.8085 27.966 16.7342C27.8918 16.6599 27.8036 16.601 27.7065 16.5607C27.6094 16.5205 27.5054 16.4998 27.4003 16.4998ZM24.2004 26.9002H16.2C15.5635 26.9002 14.953 26.6474 14.5029 26.1973C14.0528 25.7472 13.8 25.1367 13.8 24.5002V14.4999C13.8022 14.3945 13.845 14.294 13.9196 14.2194C13.9942 14.1448 14.0947 14.102 14.2001 14.0998H23.0004C23.1058 14.1019 23.2063 14.1447 23.2808 14.2193C23.3554 14.2939 23.3981 14.3945 23.4001 14.4999V23.6999C23.4001 24.3365 23.653 24.9469 24.1031 25.397C24.5532 25.8471 25.1636 26.1 25.8002 26.1C25.8662 26.1 25.9314 26.0966 25.9963 26.0913C25.7714 26.3458 25.495 26.5495 25.1854 26.689C24.8757 26.8285 24.54 26.9005 24.2004 26.9002Z" fill="white"/>
    <path d="M16.2013 18.1C16.643 18.1 17.0011 17.7419 17.0011 17.3001C17.0011 16.8584 16.643 16.5002 16.2013 16.5002C15.7595 16.5002 15.4014 16.8584 15.4014 17.3001C15.4014 17.7419 15.7595 18.1 16.2013 18.1Z" fill="white"/>
    <path d="M20.9997 21.299H18.5997C18.3875 21.299 18.1841 21.2147 18.0341 21.0647C17.8841 20.9147 17.7998 20.7112 17.7998 20.4991C17.7998 20.287 17.8841 20.0835 18.0341 19.9335C18.1841 19.7835 18.3875 19.6992 18.5997 19.6992H20.9997C21.2119 19.6992 21.4153 19.7835 21.5653 19.9335C21.7153 20.0835 21.7996 20.287 21.7996 20.4991C21.7996 20.7112 21.7153 20.9147 21.5653 21.0647C21.4153 21.2147 21.2119 21.299 20.9997 21.299Z" fill="white"/>
    <path d="M16.2013 21.299C16.643 21.299 17.0011 20.9409 17.0011 20.4991C17.0011 20.0573 16.643 19.6992 16.2013 19.6992C15.7595 19.6992 15.4014 20.0573 15.4014 20.4991C15.4014 20.9409 15.7595 21.299 16.2013 21.299Z" fill="white"/>
    <path d="M21.0004 24.4988H18.6003C18.3911 24.4942 18.192 24.408 18.0457 24.2584C17.8993 24.1089 17.8174 23.9079 17.8174 23.6987C17.8174 23.4895 17.8993 23.2885 18.0457 23.139C18.192 22.9894 18.3911 22.9032 18.6003 22.8986H21.0004C21.1069 22.8963 21.2128 22.9153 21.3119 22.9545C21.411 22.9937 21.5012 23.0522 21.5774 23.1267C21.6535 23.2013 21.7141 23.2902 21.7554 23.3885C21.7967 23.4867 21.8179 23.5921 21.8179 23.6987C21.8179 23.8052 21.7967 23.9107 21.7554 24.0089C21.7141 24.1072 21.6535 24.1961 21.5774 24.2707C21.5012 24.3452 21.411 24.4037 21.3119 24.4429C21.2128 24.4821 21.1069 24.5011 21.0004 24.4988Z" fill="white"/>
    <path d="M16.2013 24.5021C16.643 24.5021 17.0011 24.144 17.0011 23.7022C17.0011 23.2605 16.643 22.9023 16.2013 22.9023C15.7595 22.9023 15.4014 23.2605 15.4014 23.7022C15.4014 24.144 15.7595 24.5021 16.2013 24.5021Z" fill="white"/>
</svg>