<svg xmlns="http://www.w3.org/2000/svg" width="40" height="40" viewBox="0 0 40 40" fill="none">
    <path d="M26.8662 28.3334H23.5327C23.3139 28.3334 23.0972 28.2899 22.895 28.2052C22.6928 28.1206 22.5091 27.9966 22.3543 27.8402C22.1996 27.6838 22.0768 27.4982 21.9931 27.2939C21.9094 27.0896 21.8663 26.8706 21.8664 26.6495V24.966C21.8664 24.5194 21.6908 24.0911 21.3782 23.7753C21.0656 23.4595 20.6417 23.2821 20.1996 23.2821C19.7576 23.2821 19.3337 23.4595 19.0211 23.7753C18.7085 24.0911 18.5329 24.5194 18.5329 24.966V26.6495C18.533 26.8706 18.4899 27.0896 18.4062 27.2939C18.3224 27.4982 18.1997 27.6838 18.045 27.8402C17.8902 27.9966 17.7065 28.1206 17.5043 28.2052C17.3021 28.2899 17.0854 28.3334 16.8665 28.3334H13.5331C13.3142 28.3334 13.0975 28.2899 12.8953 28.2052C12.6931 28.1206 12.5094 27.9966 12.3546 27.8402C12.1999 27.6838 12.0772 27.4982 11.9934 27.2939C11.9097 27.0896 11.8667 26.8706 11.8667 26.6495V17.8436C11.8659 17.5655 11.9332 17.2916 12.0627 17.0462C12.1922 16.8008 12.3798 16.5917 12.6089 16.4375L19.2747 11.9497C19.5486 11.7652 19.8704 11.6667 20.1996 11.6667C20.5289 11.6667 20.8507 11.7652 21.1246 11.9497L27.7912 16.4375C28.0202 16.5917 28.2079 16.8008 28.3374 17.0462C28.4669 17.2916 28.5342 17.5655 28.5334 17.8436V26.6495C28.5334 26.8707 28.4903 27.0897 28.4066 27.2941C28.3228 27.4984 28.2 27.6841 28.0452 27.8405C27.8903 27.9968 27.7065 28.1209 27.5042 28.2055C27.302 28.29 27.0852 28.3335 26.8662 28.3334ZM20.1996 21.5982C20.6374 21.5982 21.0708 21.6853 21.4753 21.8545C21.8797 22.0238 22.2471 22.2719 22.5566 22.5846C22.8661 22.8973 23.1117 23.2686 23.2791 23.6772C23.4466 24.0858 23.5328 24.5237 23.5327 24.966V26.6495H26.8662V17.8436L20.1996 13.3479L13.5331 17.8436V26.6495H16.8665V24.966C16.8665 24.5237 16.9527 24.0858 17.1202 23.6772C17.2876 23.2686 17.5331 22.8973 17.8426 22.5846C18.1522 22.2719 18.5196 22.0238 18.924 21.8545C19.3284 21.6853 19.7619 21.5982 20.1996 21.5982Z" fill="white"/>
    <path d="M26.8662 28.3334H23.5327C23.3139 28.3334 23.0972 28.2899 22.895 28.2052C22.6928 28.1206 22.5091 27.9966 22.3543 27.8402C22.1996 27.6838 22.0768 27.4982 21.9931 27.2939C21.9094 27.0896 21.8663 26.8706 21.8664 26.6495V24.966C21.8664 24.5194 21.6908 24.0911 21.3782 23.7753C21.0656 23.4595 20.6417 23.2821 20.1996 23.2821C19.7576 23.2821 19.3337 23.4595 19.0211 23.7753C18.7085 24.0911 18.5329 24.5194 18.5329 24.966V26.6495C18.533 26.8706 18.4899 27.0896 18.4062 27.2939C18.3224 27.4982 18.1997 27.6838 18.045 27.8402C17.8902 27.9966 17.7065 28.1206 17.5043 28.2052C17.3021 28.2899 17.0854 28.3334 16.8665 28.3334H13.5331C13.3142 28.3334 13.0975 28.2899 12.8953 28.2052C12.6931 28.1206 12.5094 27.9966 12.3546 27.8402C12.1999 27.6838 12.0772 27.4982 11.9934 27.2939C11.9097 27.0896 11.8667 26.8706 11.8667 26.6495V17.8436C11.8659 17.5655 11.9332 17.2916 12.0627 17.0462C12.1922 16.8008 12.3798 16.5917 12.6089 16.4375L19.2747 11.9497C19.5486 11.7652 19.8704 11.6667 20.1996 11.6667C20.5289 11.6667 20.8507 11.7652 21.1246 11.9497L27.7912 16.4375C28.0202 16.5917 28.2079 16.8008 28.3374 17.0462C28.4669 17.2916 28.5342 17.5655 28.5334 17.8436V26.6495C28.5334 26.8707 28.4903 27.0897 28.4066 27.2941C28.3228 27.4984 28.2 27.6841 28.0452 27.8405C27.8903 27.9968 27.7065 28.1209 27.5042 28.2055C27.302 28.29 27.0852 28.3335 26.8662 28.3334ZM20.1996 21.5982C20.6374 21.5982 21.0708 21.6853 21.4753 21.8545C21.8797 22.0238 22.2471 22.2719 22.5566 22.5846C22.8661 22.8973 23.1117 23.2686 23.2791 23.6772C23.4466 24.0858 23.5328 24.5237 23.5327 24.966V26.6495H26.8662V17.8436L20.1996 13.3479L13.5331 17.8436V26.6495H16.8665V24.966C16.8665 24.5237 16.9527 24.0858 17.1202 23.6772C17.2876 23.2686 17.5331 22.8973 17.8426 22.5846C18.1522 22.2719 18.5196 22.0238 18.924 21.8545C19.3284 21.6853 19.7619 21.5982 20.1996 21.5982Z" fill="white"/>
    <path d="M21.8668 19.9146H18.5333C18.3154 19.9099 18.108 19.8191 17.9556 19.6617C17.8031 19.5043 17.7178 19.2929 17.7178 19.0727C17.7178 18.8525 17.8031 18.641 17.9556 18.4837C18.108 18.3263 18.3154 18.2355 18.5333 18.2307H21.8668C22.0847 18.2355 22.2921 18.3263 22.4445 18.4837C22.5969 18.641 22.6823 18.8525 22.6823 19.0727C22.6823 19.2929 22.5969 19.5043 22.4445 19.6617C22.2921 19.8191 22.0847 19.9099 21.8668 19.9146Z" fill="white"/>
    <path d="M21.8668 19.9146H18.5333C18.3154 19.9099 18.108 19.8191 17.9556 19.6617C17.8031 19.5043 17.7178 19.2929 17.7178 19.0727C17.7178 18.8525 17.8031 18.641 17.9556 18.4837C18.108 18.3263 18.3154 18.2355 18.5333 18.2307H21.8668C22.0847 18.2355 22.2921 18.3263 22.4445 18.4837C22.5969 18.641 22.6823 18.8525 22.6823 19.0727C22.6823 19.2929 22.5969 19.5043 22.4445 19.6617C22.2921 19.8191 22.0847 19.9099 21.8668 19.9146Z" fill="white"/>
</svg>