<svg width="14" height="10" viewBox="0 0 14 10" fill="none" xmlns="http://www.w3.org/2000/svg">
<path d="M11.6753 5.51826H1.40318C1.28709 5.51826 1.19087 5.48006 1.11452 5.40366C1.03817 5.32728 1 5.23101 1 5.11486C1 4.99871 1.03817 4.90251 1.11452 4.82626C1.19087 4.75002 1.28709 4.71189 1.40318 4.71189H11.6753L8.64014 1.67761C8.56417 1.60129 8.52529 1.5085 8.5235 1.39923C8.52173 1.28997 8.56061 1.19521 8.64014 1.11495C8.71612 1.03832 8.80938 1 8.91991 1C9.03044 1 9.12438 1.03868 9.20172 1.11603L12.849 4.7633C12.9019 4.81624 12.9403 4.87123 12.9642 4.92828C12.9881 4.98534 13 5.04788 13 5.1159C13 5.18393 12.988 5.24742 12.9639 5.30638C12.9399 5.36535 12.9016 5.4209 12.849 5.47301L9.20172 9.12029C9.12541 9.19764 9.03262 9.23631 8.92334 9.23631C8.81409 9.23631 8.71968 9.19764 8.64014 9.12029C8.55649 9.04076 8.51569 8.94558 8.51774 8.83477C8.51981 8.72396 8.56061 8.63016 8.64014 8.55337L11.6753 5.51826Z" fill="#C4C4CF" stroke="#C4C4CF"/>
</svg>
