<svg width="24" height="25" viewBox="0 0 24 25" fill="none" xmlns="http://www.w3.org/2000/svg">
<path d="M20.8002 9.0265C20.5331 8.75722 20.3826 8.39374 20.3812 8.0145V6.7365C20.3801 5.95956 20.0709 5.21477 19.5215 4.66549C18.972 4.11621 18.2271 3.80729 17.4502 3.8065H16.1742C15.9863 3.80699 15.8001 3.77031 15.6264 3.69857C15.4527 3.62684 15.295 3.52146 15.1622 3.3885L14.0722 2.2975C13.5222 1.74889 12.777 1.4408 12.0002 1.4408C11.2233 1.4408 10.4782 1.74889 9.92817 2.2975L8.83817 3.3885C8.70546 3.52164 8.54772 3.6272 8.37403 3.69911C8.20035 3.77102 8.01415 3.80786 7.82617 3.8075H6.54917C5.77223 3.80829 5.02733 4.11721 4.47787 4.66649C3.9284 5.21577 3.61922 5.96056 3.61817 6.7375V8.0145C3.61715 8.39334 3.46698 8.75655 3.20017 9.0255L2.10817 10.1165C1.55955 10.6665 1.25146 11.4116 1.25146 12.1885C1.25146 12.9653 1.55955 13.7105 2.10817 14.2605L3.20017 15.3505C3.46722 15.6198 3.61771 15.9832 3.61917 16.3625V17.6405C3.62022 18.4174 3.9294 19.1622 4.47887 19.7115C5.02833 20.2608 5.77323 20.5697 6.55017 20.5705H7.82617C8.01415 20.5701 8.20035 20.607 8.37403 20.6789C8.54772 20.7508 8.70546 20.8564 8.83817 20.9895L9.92817 22.0805C10.4781 22.6294 11.2232 22.9376 12.0002 22.9376C12.7771 22.9376 13.5223 22.6294 14.0722 22.0805L15.1622 20.9895C15.2949 20.8564 15.4526 20.7508 15.6263 20.6789C15.8 20.607 15.9862 20.5701 16.1742 20.5705H17.4512C18.2281 20.5697 18.973 20.2608 19.5225 19.7115C20.0719 19.1622 20.3811 18.4174 20.3822 17.6405V16.3625C20.383 15.9834 20.5336 15.62 20.8012 15.3515L21.8922 14.2605C22.4408 13.7105 22.7489 12.9653 22.7489 12.1885C22.7489 11.4116 22.4408 10.6665 21.8922 10.1165L20.8002 9.0265Z" fill="#2196F3"/>
<path d="M12 18.9385C15.7279 18.9385 18.75 15.9164 18.75 12.1885C18.75 8.46055 15.7279 5.43848 12 5.43848C8.27208 5.43848 5.25 8.46055 5.25 12.1885C5.25 15.9164 8.27208 18.9385 12 18.9385Z" fill="#29B3FF"/>
<path d="M11.0003 14.9384C10.9018 14.9387 10.8043 14.9194 10.7133 14.8816C10.6223 14.8438 10.5397 14.7884 10.4703 14.7184L8.47034 12.7184C8.33786 12.5763 8.26573 12.3882 8.26916 12.1939C8.27259 11.9996 8.3513 11.8142 8.48871 11.6768C8.62613 11.5394 8.81151 11.4607 9.00581 11.4573C9.20011 11.4538 9.38816 11.526 9.53034 11.6584L11.0003 13.1274L14.4703 9.65845C14.6125 9.52597 14.8006 9.45384 14.9949 9.45727C15.1892 9.4607 15.3745 9.53941 15.512 9.67682C15.6494 9.81424 15.7281 9.99962 15.7315 10.1939C15.7349 10.3882 15.6628 10.5763 15.5303 10.7184L11.5303 14.7184C11.461 14.7884 11.3784 14.8438 11.2874 14.8816C11.1964 14.9194 11.0988 14.9387 11.0003 14.9384Z" fill="white"/>
</svg>
