<svg width="14" height="14" viewBox="0 0 14 14" fill="none" xmlns="http://www.w3.org/2000/svg">
<path fill-rule="evenodd" clip-rule="evenodd" d="M0 7C0 3.13417 3.13417 0 7 0C10.8658 0 14 3.13417 14 7C14 10.8658 10.8658 14 7 14C3.13417 14 0 10.8658 0 7ZM9.483 12.4637C9.97662 12.239 10.4345 11.9493 10.8456 11.6057C10.6342 11.4669 10.4131 11.3393 10.1834 11.2236C10.0882 11.4388 9.98622 11.6442 9.87807 11.8389C9.75645 12.0579 9.62447 12.2673 9.483 12.4637ZM10.5361 10.2825C10.8991 10.4589 11.2447 10.6617 11.5696 10.8883C12.3604 9.9599 12.8732 8.78757 12.9795 7.5H11.0103C10.9679 8.49736 10.7999 9.44046 10.5361 10.2825ZM10.0093 7.5C9.96899 8.36812 9.82509 9.18098 9.60689 9.90223C8.94273 9.67856 8.2353 9.53804 7.5 9.49399V7.5H10.0093ZM11.0103 6.5H12.9795C12.8732 5.21243 12.3604 4.0401 11.5696 3.11172C11.2447 3.33826 10.8991 3.54109 10.5361 3.71752C10.7999 4.55954 10.9679 5.50264 11.0103 6.5ZM9.60689 4.09777C9.82509 4.81902 9.96899 5.63188 10.0093 6.5H7.5V4.50601C8.2353 4.46196 8.94273 4.32144 9.60689 4.09777ZM10.1834 2.77636C10.4131 2.66074 10.6342 2.53306 10.8456 2.39433C10.4345 2.05067 9.97662 1.76104 9.483 1.53633C9.62447 1.7327 9.75645 1.94213 9.87807 2.16107C9.98622 2.35577 10.0882 2.56122 10.1834 2.77636ZM4.517 1.53633C4.02338 1.76104 3.56554 2.05067 3.15442 2.39433C3.36582 2.53306 3.58688 2.66074 3.81657 2.77636C3.91177 2.56122 4.01378 2.35577 4.12193 2.16107C4.24355 1.94213 4.37553 1.7327 4.517 1.53633ZM3.46386 3.71752C3.10087 3.54109 2.75534 3.33826 2.43035 3.11172C1.63962 4.0401 1.12678 5.21243 1.02054 6.5H2.98967C3.0321 5.50264 3.20009 4.55954 3.46386 3.71752ZM3.99065 6.5C4.03101 5.63188 4.17491 4.81902 4.39311 4.09777C5.05727 4.32144 5.7647 4.46196 6.5 4.50601V6.5H3.99065ZM2.98967 7.5H1.02054C1.12678 8.78757 1.63962 9.9599 2.43035 10.8883C2.75534 10.6617 3.10087 10.4589 3.46386 10.2825C3.20009 9.44046 3.0321 8.49736 2.98967 7.5ZM4.39311 9.90223C4.17491 9.18098 4.03101 8.36812 3.99065 7.5H6.5V9.49399C5.7647 9.53804 5.05727 9.67856 4.39311 9.90223ZM3.81657 11.2236C3.91177 11.4388 4.01378 11.6442 4.12193 11.8389C4.24355 12.0579 4.37553 12.2673 4.517 12.4637C4.02338 12.239 3.56554 11.9493 3.15442 11.6057C3.36582 11.4669 3.58688 11.3393 3.81657 11.2236ZM4.7406 10.8405C5.29506 10.6564 5.88532 10.5379 6.5 10.496V12.8973C5.99592 12.6949 5.46093 12.1901 4.99612 11.3533C4.90641 11.1918 4.82101 11.0206 4.7406 10.8405ZM7.5 10.496C8.11468 10.5379 8.70494 10.6564 9.2594 10.8405C9.17899 11.0206 9.09359 11.1918 9.00388 11.3533C8.53907 12.1901 8.00408 12.6949 7.5 12.8973V10.496ZM6.5 3.50397C5.88532 3.46208 5.29506 3.34362 4.7406 3.15954C4.82101 2.9794 4.90641 2.80815 4.99612 2.64666C5.46093 1.80987 5.99592 1.30513 6.5 1.10275V3.50397ZM7.5 3.50397C8.11468 3.46208 8.70494 3.34362 9.2594 3.15954C9.17899 2.9794 9.09359 2.80815 9.00388 2.64666C8.53907 1.80987 8.00408 1.30513 7.5 1.10275V3.50397Z" fill="#DFBF83"/>
</svg>
