<svg xmlns="http://www.w3.org/2000/svg" width="40" height="40" viewBox="0 0 40 40" fill="none">
    <path d="M26.7822 25.0345C26.632 24.3719 26.3766 23.75 26.0349 23.1863C26.0165 23.1558 25.9975 23.1259 25.9786 23.0954C25.9757 23.0908 25.9722 23.0856 25.9693 23.081C25.9308 23.0201 25.8911 22.9597 25.8503 22.9004C25.8485 22.8975 25.8462 22.8947 25.8445 22.8918C25.8238 22.8613 25.8031 22.8314 25.7818 22.8015C25.7772 22.7951 25.7732 22.7888 25.7686 22.7831C25.7617 22.7739 25.7554 22.7647 25.7485 22.7555C25.7404 22.7439 25.7318 22.733 25.7237 22.7215C25.707 22.6991 25.6904 22.6761 25.6731 22.6542C25.6564 22.6318 25.6392 22.6093 25.6219 22.5875C25.6133 22.5766 25.6046 22.5656 25.596 22.5541C25.5874 22.5432 25.5788 22.5323 25.5696 22.5213C25.5678 22.5196 25.5661 22.5173 25.565 22.5156C25.5581 22.5064 25.5506 22.4977 25.5431 22.4885C25.5356 22.4793 25.5281 22.4707 25.5212 22.4621C25.5109 22.4494 25.5011 22.4368 25.4908 22.4247C25.4867 22.4195 25.4821 22.4149 25.4781 22.4097C25.4752 22.4063 25.4723 22.4028 25.4695 22.3994C25.4534 22.3804 25.4373 22.362 25.4211 22.343C25.4171 22.3384 25.4131 22.3338 25.4091 22.3292C25.4091 22.3286 25.4079 22.3281 25.4073 22.3275C25.3889 22.3062 25.3705 22.2855 25.3515 22.2642C25.3498 22.2625 25.3487 22.2607 25.3469 22.259C25.3297 22.24 25.3124 22.2205 25.2946 22.2015C25.2854 22.1917 25.2762 22.1814 25.267 22.1716C25.2572 22.1612 25.2474 22.1503 25.2376 22.1399C25.2198 22.121 25.2014 22.102 25.183 22.083C25.1818 22.0818 25.1807 22.0807 25.1795 22.079C25.1698 22.0686 25.16 22.0588 25.1502 22.0491C25.1404 22.0393 25.1307 22.0289 25.1209 22.0191C25.1197 22.018 25.1186 22.0168 25.1174 22.0157L25.091 21.9892C25.0864 21.9846 25.0818 21.9806 25.0772 21.976C25.0582 21.9576 25.0392 21.9386 25.0202 21.9202C25.0145 21.9145 25.0087 21.9093 25.003 21.9035C24.9949 21.896 24.9874 21.8886 24.9794 21.8817C24.9759 21.8788 24.973 21.8753 24.9696 21.8725C24.9679 21.8707 24.9656 21.869 24.9638 21.8667C24.9564 21.8592 24.9483 21.8523 24.9402 21.8449C24.9391 21.8443 24.9385 21.8431 24.9379 21.8426C24.9201 21.8264 24.9029 21.8103 24.885 21.7942C24.8822 21.7919 24.8798 21.7891 24.877 21.7868C24.8459 21.7586 24.8143 21.731 24.7821 21.7033C24.7608 21.6849 24.7395 21.6665 24.7182 21.6487C24.6969 21.6303 24.6751 21.6125 24.6532 21.5946C24.6532 21.5946 24.6486 21.5906 24.6463 21.5883C24.6164 21.5636 24.5859 21.5394 24.5554 21.5152C24.5445 21.5066 24.5336 21.498 24.5221 21.4894C24.5111 21.4807 24.4996 21.4721 24.4887 21.4635C24.4674 21.4474 24.4461 21.4307 24.4243 21.4146C24.4231 21.414 24.4225 21.4128 24.4214 21.4123C24.4099 21.4042 24.399 21.3956 24.3874 21.3875C24.365 21.3709 24.342 21.3542 24.319 21.3381C24.3178 21.3369 24.3161 21.3358 24.315 21.3352C24.2937 21.3202 24.2718 21.3047 24.2505 21.2897C24.2482 21.288 24.2454 21.2863 24.2431 21.2846C24.2339 21.2782 24.2247 21.2719 24.2155 21.2656C24.2039 21.2575 24.1919 21.2495 24.1804 21.242C24.1804 21.242 24.1792 21.2414 24.1792 21.2409C24.1643 21.2305 24.1493 21.2207 24.1338 21.2109C24.1257 21.2058 24.1182 21.2006 24.1102 21.1954C24.1096 21.1954 24.1085 21.1943 24.1079 21.1937C24.1067 21.1931 24.1056 21.192 24.1039 21.1914C24.0964 21.1862 24.0889 21.1816 24.0814 21.177C24.0791 21.1753 24.0768 21.1741 24.0745 21.1724C24.0624 21.1649 24.0509 21.1569 24.0389 21.1494C24.002 21.1258 23.9646 21.1028 23.9273 21.0804C23.9042 21.0666 23.8812 21.0527 23.8582 21.0395C23.8467 21.0326 23.8346 21.0257 23.8231 21.0188C23.8185 21.0159 23.8139 21.0136 23.8093 21.0108C23.807 21.0096 23.8047 21.0079 23.803 21.0067C23.7932 21.001 23.7834 20.9952 23.7731 20.99C23.7656 20.986 23.7581 20.9814 23.7507 20.9774C23.7501 20.9774 23.7489 20.9762 23.7484 20.9757C23.7363 20.9688 23.7236 20.9619 23.7115 20.955C23.6621 20.9273 23.612 20.9009 23.562 20.875C23.4199 21.0096 23.268 21.1344 23.1081 21.2478C22.4023 21.7482 21.5705 22.0134 20.703 22.0134C19.8356 22.0134 19.0038 21.7488 18.298 21.2478C18.1381 21.1344 17.9862 21.0096 17.8441 20.875C17.7935 20.9009 17.744 20.9279 17.6946 20.955C17.6819 20.9619 17.6698 20.9688 17.6577 20.9757C17.6572 20.9757 17.656 20.9768 17.6554 20.9774C17.648 20.9814 17.6405 20.986 17.633 20.99C17.6232 20.9958 17.6134 21.0016 17.6031 21.0067C17.6008 21.0079 17.5985 21.0096 17.5968 21.0108C17.5922 21.0136 17.5876 21.0159 17.583 21.0188C17.5715 21.0257 17.5594 21.0326 17.5479 21.0395C17.5249 21.0527 17.5019 21.0666 17.4788 21.0804C17.4415 21.1028 17.4041 21.1264 17.3672 21.1494C17.3552 21.1569 17.3437 21.1643 17.3316 21.1724C17.3293 21.1735 17.327 21.1753 17.3247 21.177C17.3172 21.1816 17.3097 21.1868 17.3022 21.1914C17.3011 21.192 17.2999 21.1931 17.2982 21.1937C17.2976 21.1937 17.2965 21.1948 17.2959 21.1954C17.2879 21.2006 17.2798 21.2058 17.2723 21.2109C17.2574 21.2207 17.2424 21.2311 17.2275 21.2409C17.2275 21.2409 17.2263 21.2414 17.2257 21.242C17.2142 21.2501 17.2022 21.2575 17.1906 21.2656C17.1814 21.2719 17.1722 21.2782 17.163 21.2846C17.1607 21.2863 17.1579 21.288 17.1556 21.2897C17.1337 21.3047 17.1124 21.3197 17.0911 21.3352C17.09 21.3358 17.0883 21.3369 17.0871 21.3381C17.0641 21.3542 17.0411 21.3709 17.0187 21.3875C17.0071 21.3956 16.9962 21.4042 16.9847 21.4123C16.9836 21.4128 16.983 21.414 16.9818 21.4146C16.96 21.4307 16.9387 21.4468 16.9174 21.4635C16.9065 21.4721 16.895 21.4807 16.884 21.4894C16.8731 21.498 16.8622 21.5066 16.8507 21.5152C16.8202 21.5394 16.7897 21.5636 16.7598 21.5883C16.7575 21.59 16.7552 21.5923 16.7529 21.594C16.731 21.6119 16.7097 21.6297 16.6879 21.6481C16.6666 21.666 16.6453 21.6844 16.624 21.7028C16.5924 21.7304 16.5608 21.7586 16.5291 21.7862C16.5262 21.7885 16.5239 21.7914 16.5211 21.7937C16.5032 21.8098 16.486 21.8259 16.4681 21.842C16.4676 21.8425 16.4664 21.8437 16.4658 21.8443C16.4578 21.8518 16.4503 21.8587 16.4423 21.8661C16.4405 21.8679 16.4382 21.8696 16.4365 21.8719C16.4331 21.8748 16.4302 21.8782 16.4267 21.8811C16.4187 21.8886 16.4112 21.896 16.4031 21.903C16.3974 21.9087 16.3916 21.9139 16.3859 21.9196C16.3669 21.938 16.3479 21.9564 16.3289 21.9754C16.3243 21.98 16.3197 21.9841 16.3151 21.9887L16.2887 22.0151C16.2887 22.0151 16.2864 22.0174 16.2852 22.0186C16.2754 22.0284 16.2657 22.0387 16.2559 22.0485C16.2461 22.0583 16.2363 22.0686 16.2265 22.0784C16.2254 22.0795 16.2242 22.0807 16.2231 22.0824C16.2047 22.1014 16.1869 22.1204 16.1684 22.1394C16.1587 22.1497 16.1489 22.1601 16.1391 22.171C16.1299 22.1808 16.1207 22.1911 16.1115 22.2009C16.0937 22.2199 16.0764 22.2389 16.0592 22.2584C16.0574 22.2602 16.0563 22.2619 16.0546 22.2636C16.0361 22.2843 16.0172 22.3056 15.9988 22.3269C15.9982 22.3275 15.9976 22.3281 15.997 22.3286C15.993 22.3332 15.989 22.3384 15.9849 22.343C15.9688 22.3614 15.9527 22.3804 15.9372 22.3988C15.9343 22.4023 15.9315 22.4057 15.9286 22.4092C15.9245 22.4143 15.9199 22.4189 15.9159 22.4241C15.9056 22.4368 15.8952 22.4494 15.8854 22.4615C15.878 22.4701 15.8705 22.4793 15.8636 22.488C15.8561 22.4966 15.8492 22.5058 15.8417 22.515C15.84 22.5167 15.8383 22.519 15.8371 22.5208C15.8285 22.5317 15.8199 22.5426 15.8107 22.5535C15.802 22.5645 15.7934 22.5754 15.7848 22.5869C15.7675 22.6093 15.7503 22.6312 15.7336 22.6536C15.7169 22.6761 15.6996 22.6985 15.6829 22.7209C15.6749 22.7324 15.6663 22.7434 15.6582 22.7549C15.6513 22.7641 15.645 22.7733 15.6381 22.7825C15.6335 22.7888 15.6295 22.7951 15.6249 22.8009C15.6036 22.8308 15.5829 22.8607 15.5621 22.8912C15.5604 22.8941 15.5581 22.897 15.5564 22.8998C15.5156 22.9591 15.4759 23.0195 15.4373 23.0805C15.4344 23.0851 15.431 23.0902 15.4281 23.0948C15.4091 23.1248 15.3902 23.1552 15.3717 23.1857C15.0295 23.7495 14.7741 24.3719 14.6245 25.034C14.7856 25.2284 14.9558 25.4148 15.1347 25.5931C15.2446 24.843 15.5052 24.1228 15.9033 23.4739C15.9084 23.4653 15.9136 23.4567 15.9194 23.448C15.9936 23.329 16.0718 23.2128 16.1541 23.1C16.1564 23.0971 16.1581 23.0943 16.1604 23.0914C16.1708 23.077 16.1811 23.0632 16.192 23.0488C16.1938 23.0465 16.1955 23.0442 16.1972 23.0419C16.211 23.0235 16.2254 23.0045 16.2398 22.9861C16.2507 22.9717 16.2616 22.9579 16.2726 22.9436C16.276 22.939 16.2795 22.9349 16.2829 22.9303C16.3008 22.9073 16.3192 22.8843 16.3376 22.8619C16.3491 22.8475 16.3606 22.8337 16.3727 22.8193C16.3859 22.8038 16.3991 22.7877 16.4124 22.7721C16.4273 22.7543 16.4423 22.737 16.4572 22.7198C16.4572 22.7192 16.4584 22.7181 16.4589 22.7175C16.4728 22.7014 16.4866 22.6858 16.5004 22.6703C16.5188 22.6496 16.5372 22.6289 16.5562 22.6088C16.5579 22.6065 16.5596 22.6047 16.5619 22.6024C16.5717 22.5921 16.5809 22.5817 16.5907 22.5714C16.593 22.5685 16.5959 22.5662 16.5982 22.5633C16.5982 22.5633 16.5987 22.5627 16.5993 22.5622C16.6143 22.5461 16.6292 22.5305 16.6442 22.515C16.6591 22.4995 16.6741 22.4839 16.689 22.469C16.6902 22.4678 16.6913 22.4667 16.6925 22.4655C16.7005 22.4575 16.7092 22.4489 16.7172 22.4408C16.7253 22.4327 16.7333 22.4247 16.7414 22.4166C16.7575 22.4005 16.7742 22.3844 16.7909 22.3683C16.8075 22.3522 16.8242 22.3361 16.8409 22.3206C16.857 22.3056 16.8731 22.2907 16.8892 22.2757C16.8898 22.2751 16.8909 22.274 16.8915 22.2734C16.9082 22.2579 16.9255 22.2423 16.9427 22.2268C16.945 22.2251 16.9467 22.2234 16.949 22.2211C16.9629 22.209 16.9761 22.1969 16.9899 22.1848C16.9933 22.1819 16.9968 22.1791 17.0002 22.1762C17.0129 22.1647 17.0261 22.1538 17.0388 22.1428C17.0428 22.1394 17.0468 22.1359 17.0509 22.1325C17.067 22.1187 17.0837 22.1049 17.0998 22.0911C17.1176 22.0761 17.1354 22.0617 17.1533 22.0473C17.1699 22.0335 17.1866 22.0203 17.2033 22.0071C17.2045 22.0059 17.2056 22.0048 17.2073 22.0042C17.2102 22.0019 17.2125 22.0002 17.2154 21.9979C17.2303 21.9864 17.2453 21.9743 17.2603 21.9628C17.2758 21.9507 17.2913 21.9392 17.3068 21.9271C17.3143 21.9214 17.3212 21.9162 17.3287 21.9104C17.3299 21.9093 17.331 21.9087 17.3327 21.9076C17.346 21.8972 17.3598 21.8874 17.373 21.8776C17.3914 21.8638 17.4104 21.8506 17.4288 21.8368C17.4299 21.8362 17.4311 21.8351 17.4317 21.8345C17.4495 21.8218 17.4673 21.8092 17.4852 21.7965C17.5013 21.785 17.5168 21.7741 17.5329 21.7632C17.5369 21.7603 17.5415 21.7574 17.5456 21.7545C17.5496 21.7517 17.5542 21.7488 17.5582 21.7459C17.572 21.7367 17.5858 21.7275 17.5996 21.7183C17.5996 21.7183 17.5996 21.7183 17.6002 21.7183C17.6186 21.7062 17.6365 21.6941 17.6549 21.6826C17.6549 21.6826 17.656 21.6821 17.656 21.6815C17.656 21.6815 17.6572 21.6809 17.6572 21.6803C17.6761 21.6683 17.6957 21.6556 17.7153 21.6435C17.7348 21.6314 17.7544 21.6194 17.7739 21.6073C17.8056 21.632 17.8378 21.6562 17.87 21.6803C17.897 21.7005 17.9241 21.72 17.9511 21.739C18.2387 21.9426 18.5442 22.1123 18.8634 22.2464C19.4421 22.4897 20.0651 22.6157 20.7059 22.6157C21.3462 22.6157 21.9697 22.4897 22.5484 22.2464C22.8677 22.1123 23.1731 21.9426 23.4607 21.739C23.4878 21.7194 23.5148 21.6999 23.5418 21.6803C23.5741 21.6562 23.6063 21.632 23.6379 21.6073C23.6575 21.6194 23.677 21.6314 23.6966 21.6435C23.7161 21.6556 23.7351 21.6683 23.7547 21.6803C23.7547 21.6803 23.7558 21.6809 23.7558 21.6815C23.7558 21.6815 23.757 21.6821 23.757 21.6826C23.7754 21.6947 23.7938 21.7062 23.8116 21.7183C23.8116 21.7183 23.8116 21.7183 23.8122 21.7183C23.826 21.7275 23.8398 21.7367 23.8536 21.7459C23.8577 21.7488 23.8623 21.7517 23.8663 21.7545C23.8703 21.7574 23.8749 21.7603 23.8789 21.7632C23.895 21.7741 23.9111 21.785 23.9267 21.7965C23.9445 21.8092 23.9623 21.8213 23.9802 21.8345C23.9813 21.8351 23.9825 21.8362 23.9831 21.8368C24.002 21.85 24.0204 21.8638 24.0389 21.8776C24.0527 21.8874 24.0659 21.8972 24.0791 21.9076C24.0803 21.9087 24.082 21.9093 24.0831 21.9104C24.0906 21.9156 24.0975 21.9214 24.105 21.9271C24.1205 21.9386 24.1361 21.9507 24.1516 21.9628C24.1666 21.9743 24.1815 21.9858 24.1965 21.9979C24.1993 22.0002 24.2016 22.0019 24.2045 22.0042C24.2057 22.0053 24.2068 22.0065 24.2085 22.0071C24.2252 22.0203 24.2419 22.0335 24.2586 22.0473C24.2764 22.0617 24.2943 22.0767 24.3121 22.0911C24.3288 22.1049 24.3449 22.1187 24.361 22.1325C24.365 22.1359 24.369 22.1394 24.3731 22.1428C24.3857 22.1538 24.399 22.1653 24.4116 22.1762C24.4151 22.1791 24.4185 22.1819 24.422 22.1848C24.4358 22.1969 24.449 22.209 24.4628 22.2211C24.4651 22.2228 24.4668 22.2245 24.4691 22.2268C24.4864 22.2423 24.5031 22.2579 24.5203 22.2734C24.5209 22.274 24.5221 22.2751 24.5226 22.2757C24.5387 22.2907 24.5548 22.3056 24.5709 22.3206C24.5876 22.3361 24.6043 22.3522 24.621 22.3683C24.6377 22.3844 24.6544 22.4005 24.6705 22.4166C24.6785 22.4247 24.686 22.4327 24.694 22.4402C24.7027 22.4489 24.7107 22.4569 24.7194 22.4655C24.7199 22.4661 24.7211 22.4673 24.7217 22.4678C24.7372 22.4834 24.7521 22.4995 24.7677 22.515C24.7826 22.5305 24.7976 22.5466 24.8125 22.5622C24.8125 22.5622 24.8131 22.5627 24.8137 22.5633C24.816 22.5662 24.8189 22.5685 24.8212 22.5714C24.831 22.5817 24.8402 22.5921 24.8499 22.6024C24.8517 22.6047 24.854 22.6065 24.8557 22.6088C24.8747 22.6289 24.8931 22.6496 24.9115 22.6703C24.9253 22.6858 24.9391 22.702 24.9529 22.7175C24.9535 22.7181 24.9541 22.7192 24.9546 22.7198C24.9696 22.737 24.9851 22.7549 25.0001 22.7721C25.0133 22.7877 25.0265 22.8032 25.0398 22.8193C25.0513 22.8331 25.0634 22.8475 25.0749 22.8619C25.0933 22.8843 25.1117 22.9073 25.1295 22.9303C25.133 22.9349 25.1364 22.939 25.1399 22.9436C25.1508 22.9574 25.1617 22.9717 25.1726 22.9861C25.187 23.0045 25.2008 23.0235 25.2152 23.0419C25.2169 23.0442 25.2187 23.0465 25.2204 23.0488C25.2307 23.0632 25.2417 23.077 25.252 23.0914C25.2543 23.0943 25.2561 23.0971 25.2584 23.1C25.3406 23.2128 25.4188 23.329 25.4931 23.448C25.4982 23.4567 25.504 23.4653 25.5092 23.4739C25.9072 24.1222 26.1678 24.843 26.2777 25.5931C26.4566 25.4148 26.6268 25.2284 26.7879 25.034L26.7822 25.0345Z" fill="white" stroke="white"/>
    <path d="M20.7012 14.9016C18.9364 14.9016 17.5063 16.3317 17.5063 18.0965C17.5063 19.1733 18.039 20.1253 18.8547 20.704C19.3759 21.0739 20.0132 21.2914 20.7012 21.2914C21.3892 21.2914 22.026 21.0739 22.5477 20.704C23.3634 20.1253 23.8961 19.1733 23.8961 18.0965C23.8961 16.3317 22.466 14.9016 20.7012 14.9016ZM22.198 20.2116C21.7591 20.5228 21.2414 20.6874 20.7012 20.6874C20.1611 20.6874 19.6434 20.5228 19.2044 20.2116C18.8731 19.9764 18.5976 19.6629 18.4083 19.3045C18.2104 18.93 18.1098 18.5233 18.1098 18.0959C18.1098 17.4039 18.3796 16.7533 18.8685 16.2638C19.358 15.7742 20.0086 15.5045 20.7006 15.5045C21.3927 15.5045 22.0438 15.7742 22.5328 16.2638C23.0223 16.7533 23.2915 17.4039 23.2915 18.0959C23.2915 18.5233 23.1914 18.9294 22.993 19.3045C22.8037 19.6629 22.5287 19.9764 22.1968 20.2116H22.198Z" fill="white" stroke="white"/>
    <path d="M29.2002 19.7869C29.1973 19.6793 29.1927 19.5723 29.1864 19.4659C29.1271 18.5075 28.9086 17.5768 28.5346 16.6921C28.1067 15.6797 27.4935 14.7708 26.7129 13.9896C25.9806 13.2579 25.1361 12.6735 24.1997 12.2507C24.137 12.2225 24.0743 12.1949 24.011 12.1684C23.9782 12.1546 23.9454 12.1408 23.9126 12.127C22.8933 11.7111 21.8136 11.5 20.7016 11.5C20.146 11.5 19.5978 11.5523 19.0616 11.6576C18.5255 11.7623 18.0009 11.9193 17.4907 12.127C17.4579 12.1402 17.4251 12.154 17.3923 12.1684C17.329 12.1955 17.2657 12.2225 17.2036 12.2507C16.2671 12.6735 15.4221 13.2579 14.6904 13.9896C13.9098 14.7702 13.2966 15.6797 12.8686 16.6921C12.4947 17.5768 12.2761 18.507 12.2169 19.4659C12.2105 19.5723 12.2059 19.6793 12.2031 19.7869C12.2013 19.8582 12.2002 19.9295 12.2002 20.0014C12.2002 20.0342 12.2002 20.0676 12.2008 20.1004C12.2008 20.1107 12.2008 20.1211 12.2008 20.132C12.2008 20.1545 12.2019 20.1775 12.2019 20.1999L12.2031 20.2356C12.2031 20.2574 12.2048 20.2793 12.2048 20.3017C12.2048 20.3126 12.2054 20.3241 12.2059 20.3357C12.2071 20.3615 12.2077 20.3874 12.2094 20.4133V20.434C12.2123 20.4662 12.2134 20.4984 12.2157 20.5307C12.2163 20.5404 12.2175 20.5502 12.2175 20.56C12.2192 20.583 12.2203 20.606 12.2221 20.6284C12.2232 20.6405 12.2238 20.6526 12.2249 20.6653C12.2261 20.686 12.2284 20.7067 12.2301 20.7274C12.2313 20.74 12.2318 20.7521 12.2336 20.7648C12.2353 20.7866 12.2376 20.8091 12.2399 20.8309C12.241 20.8413 12.2416 20.8516 12.2428 20.862C12.2462 20.8936 12.2491 20.9253 12.2531 20.9563C12.2537 20.9655 12.2554 20.9742 12.256 20.9828C12.2589 21.0064 12.2617 21.0294 12.2646 21.053C12.2663 21.0656 12.2681 21.0783 12.2698 21.0909C12.2721 21.1105 12.275 21.1306 12.2779 21.1502C12.2796 21.1634 12.2813 21.1761 12.283 21.1893C12.2853 21.21 12.2888 21.2296 12.2917 21.2503C12.2934 21.2624 12.2951 21.2744 12.2968 21.2859C12.3009 21.3136 12.3055 21.3417 12.3101 21.3694C12.3112 21.378 12.3129 21.386 12.3141 21.3947C12.3187 21.4217 12.3233 21.4482 12.3279 21.4752C12.3296 21.4867 12.3319 21.4988 12.3342 21.5109L12.3457 21.5713C12.348 21.5839 12.3503 21.5966 12.3526 21.6092C12.3567 21.6294 12.3601 21.6489 12.3641 21.6696C12.3664 21.6811 12.3687 21.6932 12.371 21.7053C12.3762 21.7295 12.3808 21.7542 12.386 21.7783C12.3877 21.7858 12.3894 21.7933 12.3906 21.8002C12.3975 21.8318 12.4044 21.8629 12.4113 21.894L12.4171 21.9204C12.4228 21.9434 12.428 21.9665 12.4332 21.9895C12.4355 21.9998 12.4383 22.0107 12.4406 22.0211C12.4464 22.0435 12.4516 22.0654 12.4568 22.0872C12.4596 22.097 12.4619 22.1068 12.4648 22.1166C12.4711 22.1425 12.478 22.1684 12.4849 22.1942C12.4861 22.2 12.4878 22.2052 12.489 22.2109C12.4976 22.2437 12.5068 22.2765 12.516 22.3087V22.311C12.5252 22.3421 12.5338 22.3737 12.543 22.4042C12.5448 22.41 12.5465 22.4157 12.5482 22.422C12.5563 22.4491 12.5643 22.4761 12.5729 22.5026C12.5747 22.5083 12.5758 22.5141 12.5781 22.5193C12.5873 22.5497 12.5977 22.5808 12.6069 22.6113L12.608 22.6136C12.619 22.6464 12.6299 22.6797 12.6408 22.7131C12.7087 22.9144 12.7841 23.1135 12.8675 23.3102C13.2592 24.2375 13.8063 25.0773 14.4948 25.8119C14.5581 25.8798 14.6231 25.9465 14.6892 26.0121C14.8129 26.1358 14.9401 26.2554 15.0701 26.3705C15.7609 26.9825 16.5392 27.4738 17.3911 27.8339C17.417 27.8442 17.4418 27.8552 17.4676 27.8661C17.4717 27.8678 17.4757 27.869 17.4803 27.8713C17.4935 27.877 17.5073 27.8822 17.5211 27.8879C17.5401 27.8954 17.5591 27.9029 17.5787 27.9104C17.5919 27.9161 17.6051 27.9213 17.6189 27.9265C17.6385 27.934 17.6575 27.9414 17.677 27.9489C17.6903 27.9541 17.7035 27.9593 17.7167 27.9639C17.7369 27.9714 17.7564 27.9788 17.776 27.9863C17.7886 27.9909 17.8019 27.9955 17.8145 28.0001C17.8346 28.0076 17.8548 28.0151 17.8749 28.022C17.8881 28.026 17.9002 28.0306 17.9135 28.0352C17.9336 28.0421 17.9543 28.049 17.9744 28.0565C17.9871 28.0605 17.9997 28.0651 18.0124 28.0691C18.0331 28.0755 18.0532 28.0824 18.0739 28.0899C18.0866 28.0939 18.0993 28.0979 18.1113 28.1019C18.132 28.1083 18.1533 28.1152 18.174 28.1215C18.1867 28.1255 18.1993 28.1295 18.2114 28.133C18.2327 28.1393 18.2534 28.1457 18.2747 28.1526C18.2874 28.156 18.2994 28.1595 18.3121 28.1635C18.3334 28.1692 18.3547 28.1761 18.3754 28.1819L18.4128 28.1922C18.434 28.198 18.4553 28.2038 18.4766 28.2101C18.4893 28.2135 18.5013 28.2164 18.5134 28.2199C18.5353 28.2256 18.5566 28.2314 18.5779 28.2365C18.5899 28.2394 18.6026 28.2429 18.6147 28.2457C18.6365 28.2509 18.6578 28.2567 18.6791 28.2619C18.6918 28.2647 18.7038 28.2676 18.7159 28.2705C18.7378 28.2757 18.7596 28.2808 18.7815 28.286C18.7936 28.2889 18.8057 28.2918 18.8183 28.2946C18.8402 28.2998 18.862 28.3038 18.8839 28.309C18.896 28.3119 18.9086 28.3148 18.9207 28.3171C18.9426 28.3217 18.9644 28.3263 18.9863 28.3303C18.9989 28.3332 19.011 28.3355 19.0237 28.3378C19.0455 28.3424 19.0674 28.3464 19.0892 28.351C19.1019 28.3533 19.1146 28.3562 19.1266 28.3579C19.1485 28.3619 19.1704 28.366 19.1922 28.3694C19.2049 28.3717 19.2175 28.374 19.2296 28.3763C19.2515 28.3798 19.2733 28.3838 19.2958 28.3873C19.3084 28.3896 19.3211 28.3913 19.3331 28.3936C19.355 28.397 19.3774 28.4005 19.3993 28.4039C19.412 28.4057 19.4246 28.408 19.4373 28.4097C19.4591 28.4131 19.481 28.416 19.5028 28.4189C19.5155 28.4206 19.5281 28.4223 19.5414 28.4241C19.5632 28.4269 19.5851 28.4298 19.607 28.4327C19.6202 28.4344 19.6328 28.4361 19.6455 28.4379C19.6674 28.4408 19.6898 28.4436 19.7116 28.4459L19.7502 28.45C19.772 28.4528 19.7939 28.4546 19.8158 28.4569C19.829 28.4586 19.8417 28.4597 19.8549 28.4609C19.8767 28.4632 19.8986 28.4649 19.9205 28.4666C19.9337 28.4678 19.9463 28.4695 19.9596 28.4701C19.982 28.4718 20.0039 28.4735 20.0257 28.4753C20.039 28.4764 20.0516 28.4776 20.0648 28.4787C20.0873 28.4804 20.1091 28.4822 20.131 28.4833C20.1442 28.4845 20.1575 28.485 20.1707 28.4862L20.2368 28.4896C20.2501 28.4902 20.2627 28.4914 20.276 28.4919C20.2984 28.4931 20.3208 28.4942 20.3438 28.4948C20.3565 28.4954 20.3691 28.496 20.3818 28.4965C20.4048 28.4965 20.4284 28.4977 20.452 28.4983C20.4641 28.4983 20.4756 28.4988 20.4876 28.4994C20.513 28.5 20.5388 28.5006 20.5642 28.5012C20.5745 28.5012 20.5837 28.5012 20.5935 28.5012C20.6292 28.5012 20.6648 28.5017 20.6999 28.5017C20.735 28.5017 20.7707 28.5017 20.8063 28.5012C20.8161 28.5012 20.8259 28.5012 20.8357 28.5012C20.861 28.5006 20.8869 28.5 20.9122 28.4994C20.9237 28.4994 20.9358 28.4988 20.9478 28.4983C20.9714 28.4977 20.995 28.4965 21.018 28.4965C21.0312 28.496 21.0433 28.4954 21.056 28.4948C21.079 28.4942 21.1008 28.4931 21.1239 28.4919C21.1371 28.4919 21.1497 28.4908 21.163 28.4896L21.2291 28.4862C21.2424 28.485 21.255 28.4845 21.2688 28.4833C21.2907 28.4822 21.3125 28.4804 21.335 28.4787C21.3482 28.4776 21.3609 28.477 21.3741 28.4753C21.3959 28.4735 21.4178 28.4718 21.4402 28.4701C21.4535 28.4689 21.4661 28.4678 21.4799 28.4666C21.5018 28.4649 21.5236 28.4626 21.5455 28.4609C21.5587 28.4597 21.5714 28.458 21.5846 28.4569C21.6065 28.4546 21.6283 28.4528 21.6502 28.45L21.6887 28.4459C21.7106 28.4431 21.733 28.4408 21.7549 28.4379C21.7675 28.4367 21.7802 28.4344 21.7934 28.4327C21.8153 28.4298 21.8372 28.4269 21.859 28.4241C21.8722 28.4223 21.8849 28.4206 21.897 28.4189C21.9194 28.4154 21.9413 28.4126 21.9631 28.4097C21.9758 28.408 21.9884 28.4057 22.0011 28.4039C22.023 28.4005 22.0454 28.397 22.0672 28.3936C22.0799 28.3913 22.092 28.3896 22.1046 28.3873C22.1271 28.3838 22.1489 28.3804 22.1702 28.3763C22.1829 28.374 22.1955 28.3717 22.2076 28.3694C22.23 28.3654 22.2513 28.3614 22.2732 28.3579C22.2858 28.3556 22.2979 28.3527 22.3106 28.351C22.3324 28.347 22.3543 28.3424 22.3762 28.3378C22.3888 28.3355 22.4009 28.3326 22.4135 28.3303C22.4354 28.3263 22.4573 28.3217 22.4791 28.3171C22.4912 28.3142 22.5039 28.3113 22.5159 28.309C22.5378 28.3038 22.5597 28.2998 22.5815 28.2946C22.5942 28.2918 22.6062 28.2889 22.6183 28.286C22.6402 28.2808 22.662 28.2757 22.6839 28.2705C22.696 28.2676 22.7086 28.2647 22.7207 28.2619C22.7426 28.2567 22.7639 28.2509 22.7851 28.2457C22.7978 28.2423 22.8099 28.2394 22.822 28.2365C22.8438 28.2308 22.8651 28.225 22.8864 28.2199C22.8985 28.2164 22.9105 28.2135 22.9232 28.2101C22.9445 28.2043 22.9658 28.1986 22.9871 28.1922L23.0244 28.1819C23.0452 28.1761 23.0664 28.1692 23.0877 28.1635C23.1004 28.16 23.1125 28.1566 23.1251 28.1526C23.1458 28.1462 23.1671 28.1399 23.1884 28.133C23.201 28.129 23.2131 28.1255 23.2258 28.1215C23.2465 28.1152 23.2672 28.1088 23.2885 28.1019C23.3011 28.0979 23.3132 28.0939 23.3259 28.0899C23.3466 28.083 23.3673 28.0761 23.3874 28.0691L23.4254 28.0565C23.4455 28.0496 23.4662 28.0427 23.4864 28.0352C23.499 28.0312 23.5117 28.0266 23.5243 28.022C23.5445 28.0151 23.5646 28.0076 23.5847 28.0001C23.5974 27.9955 23.6106 27.9909 23.6233 27.9863C23.6428 27.9788 23.663 27.9714 23.6825 27.9639C23.6957 27.9587 23.709 27.9541 23.7216 27.9489C23.7412 27.9414 23.7607 27.934 23.7803 27.9265C23.7935 27.9213 23.8073 27.9161 23.82 27.9104C23.8396 27.9029 23.858 27.8949 23.8775 27.8879C23.8908 27.8822 23.9046 27.877 23.9184 27.8713C23.9224 27.8695 23.9264 27.8678 23.931 27.8661C23.9569 27.8552 23.9822 27.8448 24.0075 27.8339C24.8595 27.4732 25.6383 26.9825 26.3286 26.3705C26.4592 26.2554 26.5857 26.1358 26.7094 26.0121C26.7756 25.9459 26.84 25.8792 26.9038 25.8119C27.5924 25.0773 28.1395 24.2369 28.5312 23.3102C28.6146 23.1135 28.69 22.9144 28.7578 22.7131C28.7693 22.6803 28.7803 22.647 28.7906 22.6136L28.7912 22.6113C28.801 22.5808 28.8108 22.5503 28.8205 22.5193C28.8223 22.5141 28.824 22.5083 28.8257 22.5026C28.8343 22.4755 28.8424 22.4491 28.8505 22.422C28.8522 22.4163 28.8539 22.4105 28.8556 22.4042C28.8648 22.3731 28.8735 22.3415 28.8827 22.311V22.3087C28.8919 22.2759 28.9011 22.2431 28.9097 22.2109C28.9109 22.2052 28.9126 22.2 28.9137 22.1942C28.9206 22.1689 28.9275 22.1425 28.9339 22.1166C28.9367 22.1068 28.939 22.097 28.9419 22.0872C28.9471 22.0648 28.9528 22.043 28.958 22.0211C28.9609 22.0107 28.9632 21.9998 28.9655 21.9895C28.9713 21.9665 28.9764 21.9434 28.9816 21.9204L28.9874 21.894C28.9943 21.8629 29.0012 21.8313 29.0081 21.8002C29.0098 21.7933 29.0109 21.7858 29.0127 21.7783C29.0178 21.7542 29.0224 21.7295 29.0276 21.7053C29.0305 21.6938 29.0328 21.6817 29.0345 21.6696C29.0386 21.6495 29.0426 21.6294 29.046 21.6092C29.0489 21.5966 29.0512 21.5839 29.0529 21.5713L29.0644 21.5109C29.0662 21.4988 29.0685 21.4873 29.0708 21.4752C29.0754 21.4482 29.08 21.4211 29.084 21.3941C29.0857 21.386 29.0869 21.3786 29.088 21.3705C29.0926 21.3429 29.0967 21.3147 29.1013 21.2865C29.103 21.275 29.1047 21.2629 29.1064 21.2509C29.1093 21.2307 29.1128 21.2106 29.1151 21.1899C29.1174 21.1772 29.1191 21.164 29.1208 21.1508L29.1289 21.0915C29.1306 21.0789 29.1323 21.0662 29.134 21.0535C29.1369 21.0305 29.1398 21.007 29.1421 20.9834C29.1432 20.9747 29.1444 20.9655 29.145 20.9569C29.149 20.9258 29.1519 20.8942 29.1553 20.8626C29.1565 20.8522 29.1571 20.8419 29.1582 20.8315C29.1605 20.8091 29.1622 20.7872 29.1645 20.7654C29.1657 20.7527 29.1663 20.74 29.168 20.728C29.1697 20.7073 29.1714 20.6865 29.1732 20.6658C29.1743 20.6532 29.1749 20.6411 29.176 20.629C29.1778 20.606 29.1789 20.5836 29.1806 20.5606C29.1806 20.5508 29.1818 20.541 29.1824 20.5312C29.1841 20.499 29.1858 20.4668 29.1881 20.4346V20.4139C29.1898 20.388 29.191 20.3621 29.1921 20.3362C29.1927 20.3247 29.1933 20.3132 29.1933 20.3023C29.1939 20.2799 29.195 20.258 29.195 20.2361L29.1962 20.2005C29.1962 20.178 29.1973 20.155 29.1973 20.1326C29.1973 20.1222 29.1973 20.1119 29.1973 20.101C29.1973 20.0682 29.1979 20.0354 29.1979 20.002C29.1979 19.9307 29.1973 19.8588 29.195 19.7874L29.2002 19.7869ZM28.5985 20.0877C28.5985 20.0969 28.5985 20.1067 28.5985 20.1165C28.5985 20.1355 28.5985 20.1545 28.5973 20.1734L28.5962 20.2079C28.5956 20.2252 28.5956 20.2419 28.595 20.2591C28.595 20.2718 28.5939 20.2839 28.5933 20.296C28.5933 20.3121 28.5922 20.3287 28.5916 20.3454C28.591 20.3581 28.5904 20.3707 28.5899 20.3828C28.5887 20.3989 28.5881 20.415 28.587 20.4311C28.5864 20.4438 28.5858 20.4565 28.5853 20.4691C28.5841 20.4846 28.5835 20.5007 28.5824 20.5163C28.5812 20.5295 28.5807 20.5416 28.5795 20.5548L28.5761 20.6014C28.5749 20.6141 28.5738 20.6273 28.5726 20.64C28.5715 20.6555 28.5697 20.671 28.5686 20.6865C28.5674 20.6992 28.5663 20.7119 28.5651 20.7251C28.5634 20.74 28.5623 20.7556 28.5611 20.7711C28.5594 20.7838 28.5582 20.797 28.5571 20.8096C28.5554 20.8252 28.5536 20.8401 28.5519 20.8557C28.5508 20.8689 28.549 20.8816 28.5479 20.8936C28.5462 20.9097 28.5444 20.9253 28.5421 20.9408C28.541 20.9535 28.5392 20.9655 28.5375 20.9782C28.5358 20.9943 28.5335 21.0104 28.5318 21.0265C28.53 21.038 28.5283 21.0501 28.5272 21.0622C28.5243 21.0817 28.5214 21.1001 28.5191 21.1197C28.5162 21.1381 28.5134 21.1565 28.5111 21.1743C28.5082 21.1916 28.5059 21.2089 28.5036 21.2261C28.5013 21.2394 28.499 21.2532 28.4967 21.2664C28.4944 21.2802 28.4921 21.2946 28.4898 21.3084C28.4875 21.3228 28.4846 21.3371 28.4829 21.3509L28.476 21.3906C28.4731 21.405 28.4702 21.42 28.4679 21.4344L28.461 21.4723C28.4581 21.4873 28.4553 21.5022 28.4524 21.5166C28.4495 21.5287 28.4472 21.5413 28.4455 21.5534C28.442 21.569 28.4392 21.5839 28.4363 21.5989C28.4334 21.6104 28.4311 21.6225 28.4288 21.6345C28.4254 21.6501 28.4225 21.665 28.4184 21.6806C28.4161 21.6921 28.4133 21.7036 28.411 21.7151C28.4075 21.7306 28.4041 21.7467 28.4006 21.7617C28.3983 21.7726 28.3954 21.7835 28.3931 21.7945C28.3891 21.8106 28.3857 21.8267 28.3822 21.8433C28.3793 21.8531 28.377 21.8635 28.3747 21.8733C28.3707 21.8899 28.3661 21.9072 28.3621 21.9239C28.3598 21.9325 28.3575 21.9417 28.3552 21.9509C28.3506 21.9688 28.346 21.986 28.3414 22.0044C28.3396 22.0113 28.3379 22.0188 28.3356 22.0263C28.3304 22.0453 28.3253 22.0648 28.3201 22.0844C28.3195 22.0873 28.3189 22.0901 28.3178 22.0924C28.2838 22.2155 28.247 22.3375 28.2073 22.4583C28.2073 22.4606 28.2062 22.4635 28.205 22.4652C28.1981 22.487 28.1907 22.5089 28.1832 22.5308C27.8708 23.4534 27.3916 24.3002 26.7819 25.0353C26.6208 25.2298 26.4506 25.4162 26.2722 25.5945C25.5405 26.3227 24.6673 26.9095 23.6986 27.3087C23.6848 27.3144 23.6704 27.3202 23.6566 27.3259C23.6411 27.3323 23.625 27.3386 23.6095 27.3449C23.5962 27.3501 23.5818 27.3559 23.5686 27.361C23.5525 27.3674 23.5364 27.3737 23.5197 27.38C23.5065 27.3852 23.4927 27.3904 23.4795 27.3955C23.4634 27.4019 23.4467 27.4076 23.43 27.414C23.4168 27.4191 23.4035 27.4237 23.3897 27.4289C23.373 27.4347 23.3558 27.441 23.3391 27.4467C23.3264 27.4513 23.3132 27.4559 23.3 27.4605C23.2827 27.4669 23.2655 27.4726 23.2482 27.4784C23.2356 27.483 23.2223 27.487 23.2097 27.4916C23.1924 27.4974 23.1746 27.5031 23.1567 27.5089C23.1441 27.5129 23.1314 27.5175 23.1188 27.5215C23.101 27.5273 23.0831 27.533 23.0653 27.5388C23.0526 27.5428 23.04 27.5468 23.0273 27.5503C23.0089 27.556 22.9911 27.5612 22.9727 27.567C22.96 27.571 22.9479 27.5744 22.9353 27.5779C22.9169 27.5836 22.8985 27.5888 22.8801 27.594C22.8674 27.5975 22.8553 27.6009 22.8432 27.6044L22.7869 27.6199C22.7742 27.6233 22.7621 27.6262 22.7495 27.6297C22.7311 27.6348 22.7121 27.64 22.6931 27.6446C22.681 27.6481 22.6684 27.6509 22.6563 27.6538C22.6373 27.659 22.6183 27.6636 22.5993 27.6682C22.5867 27.6717 22.5746 27.6745 22.5625 27.6774C22.5435 27.682 22.5246 27.686 22.505 27.6906C22.4929 27.6935 22.4803 27.6964 22.4682 27.6993C22.4486 27.7039 22.4291 27.7079 22.4101 27.7125C22.3974 27.7154 22.3859 27.7183 22.3738 27.7206C22.3543 27.7246 22.3347 27.7286 22.3152 27.7332C22.3025 27.7355 22.2904 27.7384 22.2784 27.7407C22.2588 27.7447 22.2392 27.7487 22.2197 27.7522C22.2076 27.7545 22.195 27.7574 22.1829 27.7591C22.1633 27.7631 22.1438 27.766 22.1236 27.77C22.111 27.7723 22.0989 27.7746 22.0868 27.7764C22.0672 27.7798 22.0471 27.7833 22.027 27.7867C22.0149 27.789 22.0028 27.7913 21.9902 27.793C21.97 27.7965 21.9499 27.7994 21.9298 27.8022C21.9171 27.804 21.905 27.8057 21.893 27.808C21.8728 27.8114 21.8527 27.8143 21.832 27.8172C21.8199 27.8189 21.8078 27.8206 21.7952 27.8224C21.775 27.8252 21.7549 27.8275 21.7342 27.8304C21.7215 27.8321 21.7094 27.8339 21.6974 27.8356C21.6772 27.8385 21.6565 27.8408 21.6364 27.8431L21.599 27.8471C21.5789 27.8494 21.5582 27.8517 21.538 27.854C21.5254 27.8552 21.5133 27.8569 21.5012 27.858C21.4805 27.8598 21.4598 27.8621 21.4391 27.8638C21.4264 27.8649 21.4149 27.8661 21.4023 27.8672C21.381 27.869 21.3603 27.8713 21.3396 27.8724C21.3269 27.8736 21.3148 27.8747 21.3028 27.8759C21.282 27.877 21.2608 27.8787 21.2395 27.8799L21.2032 27.8828C21.182 27.8839 21.1601 27.8851 21.1388 27.8862C21.1273 27.8874 21.1152 27.8879 21.1037 27.8879C21.0819 27.8891 21.06 27.8902 21.0381 27.8908C21.0266 27.8914 21.0151 27.892 21.0036 27.8925C20.9806 27.8931 20.9576 27.8937 20.9352 27.8943C20.9248 27.8943 20.9139 27.8948 20.9035 27.8954C20.8782 27.896 20.8529 27.8966 20.8282 27.8972C20.8196 27.8972 20.8109 27.8972 20.8029 27.8972C20.7689 27.8977 20.7356 27.8983 20.7016 27.8983C20.6677 27.8983 20.6343 27.8983 20.6004 27.8972C20.5923 27.8972 20.5837 27.8972 20.5751 27.8972C20.5498 27.8966 20.5245 27.896 20.4997 27.8954C20.4894 27.8954 20.4784 27.8943 20.4681 27.8943C20.4451 27.8937 20.4221 27.8931 20.3996 27.8925C20.3881 27.892 20.3766 27.8914 20.3651 27.8908C20.3433 27.8902 20.3214 27.8891 20.2995 27.8879C20.288 27.8879 20.276 27.8868 20.2645 27.8862C20.2426 27.8851 20.2213 27.8839 20.2 27.8828L20.1638 27.8799C20.1425 27.8782 20.1212 27.877 20.1005 27.8759C20.0879 27.8747 20.0758 27.8736 20.0637 27.8724C20.043 27.8713 20.0223 27.869 20.001 27.8672C19.9883 27.8661 19.9768 27.8649 19.9642 27.8638C19.9435 27.8621 19.9228 27.8598 19.9021 27.858C19.89 27.8569 19.8773 27.8552 19.8652 27.854C19.8445 27.8517 19.8244 27.8494 19.8043 27.8471L19.7669 27.8431C19.7467 27.8408 19.726 27.8379 19.7059 27.8356C19.6938 27.8345 19.6812 27.8327 19.6691 27.8304C19.6489 27.8275 19.6282 27.8252 19.6081 27.8224C19.5955 27.8206 19.5834 27.8189 19.5713 27.8172C19.5512 27.8143 19.531 27.8114 19.5109 27.808C19.4988 27.8063 19.4867 27.8045 19.4741 27.8022C19.4539 27.7988 19.4338 27.7959 19.4137 27.793C19.401 27.7913 19.3889 27.789 19.3769 27.7867C19.3567 27.7833 19.3366 27.7798 19.317 27.7764C19.305 27.7746 19.2929 27.7723 19.2802 27.77C19.2601 27.766 19.2405 27.7631 19.221 27.7591C19.2089 27.7568 19.1962 27.7539 19.1842 27.7522C19.164 27.7482 19.1445 27.7441 19.1255 27.7407C19.1128 27.7378 19.1013 27.7355 19.0887 27.7332C19.0691 27.7292 19.0496 27.7252 19.03 27.7206C19.0179 27.7177 19.0058 27.7154 18.9938 27.7125C18.9742 27.7085 18.9546 27.7039 18.9357 27.6993C18.923 27.6964 18.9109 27.6935 18.8988 27.6906C18.8793 27.686 18.8603 27.682 18.8413 27.6774C18.8287 27.674 18.8166 27.6711 18.8045 27.6682C18.7855 27.6636 18.7665 27.659 18.7476 27.6538C18.7349 27.6509 18.7228 27.6475 18.7107 27.6446C18.6918 27.6394 18.6728 27.6348 18.6544 27.6297C18.6417 27.6262 18.6296 27.6233 18.617 27.6199C18.5986 27.6147 18.5796 27.6095 18.5606 27.6044C18.5479 27.6009 18.5359 27.5975 18.5238 27.594C18.5054 27.5888 18.487 27.5831 18.4686 27.5779C18.4559 27.5744 18.4433 27.5704 18.4306 27.567C18.4122 27.5612 18.3944 27.556 18.3759 27.5503C18.3633 27.5468 18.3506 27.5422 18.338 27.5388C18.3201 27.533 18.3023 27.5278 18.2845 27.5215C18.2718 27.5175 18.2592 27.5135 18.2465 27.5089C18.2293 27.5031 18.2114 27.4974 18.1936 27.4916C18.1809 27.487 18.1677 27.483 18.1551 27.4784C18.1378 27.4726 18.1205 27.4669 18.1033 27.4605C18.0906 27.4559 18.0774 27.4513 18.0642 27.4467C18.0469 27.441 18.0302 27.4347 18.0135 27.4289C17.9997 27.4237 17.9871 27.4191 17.9733 27.414C17.9572 27.4076 17.9405 27.4019 17.9238 27.3955C17.9106 27.3904 17.8968 27.3852 17.8835 27.38C17.8674 27.3737 17.8508 27.3674 17.8352 27.361C17.8214 27.3559 17.8076 27.3501 17.7944 27.3449C17.7789 27.3386 17.7627 27.3323 17.7472 27.3259C17.7334 27.3202 17.719 27.3144 17.7052 27.3087C16.7359 26.9095 15.8627 26.3233 15.1316 25.5945C14.9533 25.4162 14.783 25.2298 14.6219 25.0353C14.0122 24.3002 13.533 23.4534 13.2207 22.5308C13.2132 22.5089 13.2063 22.487 13.1988 22.4652C13.1982 22.4629 13.1971 22.46 13.1965 22.4583C13.1568 22.3375 13.12 22.2155 13.0861 22.0924C13.0849 22.0896 13.0843 22.0867 13.0838 22.0844C13.0786 22.0648 13.0734 22.0453 13.0682 22.0263C13.0665 22.0194 13.0642 22.0119 13.0625 22.0044C13.0579 21.9866 13.0533 21.9688 13.0487 21.9509C13.0464 21.9417 13.0441 21.9325 13.0418 21.9239C13.0377 21.9072 13.0337 21.8899 13.0291 21.8733C13.0268 21.8629 13.0239 21.8531 13.0216 21.8433C13.0182 21.8272 13.0142 21.8111 13.0107 21.7945C13.0078 21.7835 13.0055 21.7726 13.0032 21.7617C12.9998 21.7461 12.9963 21.7306 12.9929 21.7151C12.9906 21.7036 12.9877 21.6921 12.9854 21.6806C12.9819 21.665 12.9791 21.6501 12.9756 21.6345C12.9733 21.6225 12.9704 21.611 12.9681 21.5989C12.9653 21.5839 12.9624 21.569 12.9589 21.5534C12.9566 21.5413 12.9543 21.5293 12.952 21.5166C12.9492 21.5017 12.9463 21.4867 12.9434 21.4723L12.9365 21.4344C12.9336 21.4194 12.9313 21.405 12.9284 21.3906C12.9261 21.3774 12.9238 21.3642 12.9215 21.3509C12.9192 21.3371 12.9164 21.3228 12.9146 21.3084C12.9123 21.2946 12.91 21.2808 12.9077 21.2664C12.9054 21.2532 12.9031 21.2394 12.9008 21.2261C12.898 21.2089 12.8957 21.191 12.8934 21.1743C12.8905 21.1559 12.8876 21.1381 12.8853 21.1197C12.883 21.1001 12.8796 21.0817 12.8773 21.0622C12.8761 21.0507 12.8744 21.0386 12.8726 21.0265C12.8709 21.0104 12.8686 20.9949 12.8669 20.9782C12.8652 20.9655 12.8634 20.9535 12.8623 20.9408C12.8606 20.9253 12.8583 20.9097 12.8565 20.8936C12.8548 20.881 12.8537 20.8683 12.8525 20.8557C12.8508 20.8407 12.8491 20.8252 12.8479 20.8096C12.8468 20.797 12.8456 20.7838 12.8439 20.7711C12.8427 20.7556 12.841 20.74 12.8399 20.7251C12.8387 20.7119 12.8376 20.6992 12.8364 20.6865C12.8353 20.671 12.8335 20.6555 12.8324 20.64C12.8312 20.6273 12.8307 20.6146 12.8289 20.6014C12.8278 20.5859 12.8266 20.5703 12.8261 20.5548C12.8249 20.5416 12.8238 20.5295 12.8232 20.5163C12.822 20.5007 12.8215 20.4846 12.8203 20.4691C12.8197 20.4565 12.8192 20.4432 12.8186 20.4311C12.8174 20.415 12.8169 20.3989 12.8157 20.3828C12.8151 20.3702 12.8145 20.3575 12.814 20.3454C12.8134 20.3287 12.8128 20.3126 12.8122 20.296C12.8122 20.2839 12.8111 20.2718 12.8111 20.2591C12.8105 20.2419 12.8105 20.2246 12.8099 20.2079L12.8088 20.1734C12.8088 20.1545 12.8082 20.1355 12.8076 20.1165C12.8076 20.1067 12.8076 20.0969 12.8076 20.0877C12.8076 20.059 12.8071 20.0296 12.8071 20.0009C12.8071 19.8651 12.8105 19.7294 12.8174 19.5947C13.0268 15.4289 16.4834 12.1034 20.7016 12.1034C24.9199 12.1034 28.377 15.4283 28.5887 19.5947C28.5956 19.7294 28.5991 19.8645 28.5991 20.0009C28.5991 20.0296 28.5991 20.059 28.5985 20.0877Z" fill="white" stroke="white"/>
</svg>