<svg xmlns="http://www.w3.org/2000/svg" width="40" height="40" viewBox="0 0 40 40" fill="none">
    <path d="M21.8018 16.9033C21.5699 16.9035 21.3476 16.9957 21.1836 17.1596C21.0197 17.3235 20.9274 17.5458 20.9271 17.7776V26.3903H19.4746V17.7776C19.4698 17.5489 19.3755 17.3312 19.212 17.1711C19.0485 17.0111 18.8289 16.9214 18.6001 16.9214C18.3713 16.9214 18.1516 17.0111 17.9882 17.1711C17.8247 17.3312 17.7304 17.5489 17.7256 17.7776V27.2654C17.7259 27.4972 17.8181 27.7194 17.982 27.8834C18.1459 28.0473 18.3681 28.1396 18.5999 28.1401H21.8018C22.0336 28.1396 22.2558 28.0473 22.4197 27.8834C22.5836 27.7194 22.6758 27.4972 22.6761 27.2654V17.7776C22.6759 17.5458 22.5837 17.3235 22.4198 17.1596C22.2559 16.9957 22.0336 16.9035 21.8018 16.9033Z" fill="white"/>
    <path d="M26.6702 15.3024H25.0927C25.495 14.859 25.7978 14.2785 25.7978 13.528C25.8222 12.7546 25.5406 12.0029 25.0141 11.436C24.4876 10.8691 23.7587 10.5327 22.9857 10.5H22.9778C21.0396 10.5 20.3502 12.7124 20.2257 13.1832C20.2135 13.2158 20.2029 13.2498 20.1935 13.2855C20.1935 13.2894 20.1916 13.2929 20.1908 13.2968C20.1783 13.2632 20.1661 13.2299 20.1536 13.197L20.145 13.1758C19.6013 12.0034 18.9248 10.5443 17.4335 10.5012H17.4265C17.075 10.5047 16.7277 10.5782 16.4049 10.7173C16.0821 10.8563 15.7902 11.0583 15.5462 11.3112C15.2489 11.5987 15.0119 11.9426 14.8491 12.3229C14.6864 12.7031 14.6013 13.112 14.5987 13.5256C14.6053 14.0008 14.7444 14.6635 15.3167 15.3028H13.7302C13.3248 15.3039 12.9363 15.4653 12.6496 15.752C12.3629 16.0386 12.2013 16.4271 12.2002 16.8325V26.5713C12.2014 26.9767 12.363 27.3651 12.6497 27.6517C12.9364 27.9383 13.3249 28.0998 13.7302 28.1009H26.6702C27.0756 28.0998 27.4641 27.9382 27.7508 27.6515C28.0375 27.3649 28.1991 26.9763 28.2002 26.5709V16.8325C28.1992 16.427 28.0376 16.0384 27.7509 15.7517C27.4642 15.465 27.0756 15.3035 26.6702 15.3024ZM25.0026 16.8948H26.6087V26.5078H13.7925V16.8948H19.6588C19.7717 16.8948 19.8751 16.8948 19.9722 16.8948H20.2002H20.2245C20.2637 16.8948 20.3275 16.8948 20.4086 16.8948C21.3844 16.9229 22.3579 16.7846 23.2873 16.4858L23.3057 16.4791C23.6182 16.3482 23.9206 16.1945 24.2106 16.0193C24.2079 16.0453 24.2066 16.0714 24.2067 16.0976C24.2067 16.3088 24.2905 16.5114 24.4397 16.6609C24.589 16.8103 24.7914 16.8944 25.0026 16.8948ZM21.297 15.2774C21.4568 14.7411 21.6049 14.2021 21.7385 13.6713C21.7859 13.5029 22.1909 12.1005 22.972 12.0927C23.3225 12.1213 23.6479 12.2858 23.8787 12.5512C24.1095 12.8165 24.2273 13.1616 24.2071 13.5127V13.5248C24.2071 14.2542 23.3876 14.707 22.67 15.02C22.225 15.1634 21.7637 15.2499 21.297 15.2774ZM16.6646 12.4453L16.6732 12.4366C16.8581 12.2373 17.1111 12.1146 17.3822 12.0927H17.3916C17.8965 12.1111 18.3411 13.0689 18.6999 13.8425C18.8817 14.3112 19.0367 14.7899 19.1641 15.2762C18.665 15.2424 18.1722 15.146 17.6971 14.9894C17.0163 14.7227 16.2059 14.2495 16.1937 13.508C16.2045 13.1055 16.3737 12.7236 16.6646 12.4453Z" fill="white"/>
</svg>