<svg width="18" height="16" viewBox="0 0 18 16" fill="none" xmlns="http://www.w3.org/2000/svg">
<path d="M7.68 16V14.2222H14.5067V7.91111C14.5067 6.17778 13.9271 4.70741 12.768 3.5C11.6089 2.29259 10.1973 1.68889 8.53333 1.68889C6.86933 1.68889 5.45778 2.29259 4.29867 3.5C3.13956 4.70741 2.56 6.17778 2.56 7.91111V13.3333H1.70667C1.23733 13.3333 0.835556 13.1593 0.501333 12.8111C0.167111 12.463 0 12.0444 0 11.5556V9.77778C0 9.46667 0.0746667 9.17407 0.224 8.9C0.373333 8.62593 0.583111 8.40741 0.853333 8.24444L0.917333 7.06667C1.03111 6.05926 1.312 5.12593 1.76 4.26667C2.208 3.40741 2.76978 2.65926 3.44533 2.02222C4.12089 1.38519 4.896 0.888889 5.77067 0.533333C6.64533 0.177778 7.56622 0 8.53333 0C9.50045 0 10.4178 0.177778 11.2853 0.533333C12.1529 0.888889 12.928 1.38148 13.6107 2.01111C14.2933 2.64074 14.8551 3.38519 15.296 4.24444C15.7369 5.1037 16.0213 6.03704 16.1493 7.04444L16.2133 8.2C16.4836 8.33333 16.6933 8.53333 16.8427 8.8C16.992 9.06667 17.0667 9.34815 17.0667 9.64444V11.6889C17.0667 11.9852 16.992 12.2667 16.8427 12.5333C16.6933 12.8 16.4836 13 16.2133 13.1333V14.2222C16.2133 14.7111 16.0462 15.1296 15.712 15.4778C15.3778 15.8259 14.976 16 14.5067 16H7.68ZM5.97333 9.77778C5.73156 9.77778 5.52889 9.69259 5.36533 9.52222C5.20178 9.35185 5.12 9.14074 5.12 8.88889C5.12 8.63704 5.20178 8.42593 5.36533 8.25556C5.52889 8.08519 5.73156 8 5.97333 8C6.21511 8 6.41778 8.08519 6.58133 8.25556C6.74489 8.42593 6.82667 8.63704 6.82667 8.88889C6.82667 9.14074 6.74489 9.35185 6.58133 9.52222C6.41778 9.69259 6.21511 9.77778 5.97333 9.77778ZM11.0933 9.77778C10.8516 9.77778 10.6489 9.69259 10.4853 9.52222C10.3218 9.35185 10.24 9.14074 10.24 8.88889C10.24 8.63704 10.3218 8.42593 10.4853 8.25556C10.6489 8.08519 10.8516 8 11.0933 8C11.3351 8 11.5378 8.08519 11.7013 8.25556C11.8649 8.42593 11.9467 8.63704 11.9467 8.88889C11.9467 9.14074 11.8649 9.35185 11.7013 9.52222C11.5378 9.69259 11.3351 9.77778 11.0933 9.77778ZM3.43467 8.4C3.33511 6.82963 3.79022 5.48148 4.8 4.35556C5.80978 3.22963 7.06845 2.66667 8.576 2.66667C9.84178 2.66667 10.9547 3.08519 11.9147 3.92222C12.8747 4.75926 13.4542 5.82963 13.6533 7.13333C12.3591 7.11852 11.168 6.75556 10.08 6.04444C8.992 5.33333 8.15645 4.37037 7.57333 3.15556C7.34578 4.34074 6.86578 5.3963 6.13333 6.32222C5.40089 7.24815 4.50133 7.94074 3.43467 8.4Z" fill="#DFBF83"/>
</svg>
