<svg width="56" height="41" viewBox="0 0 56 41" fill="none" xmlns="http://www.w3.org/2000/svg">
<g clip-path="url(#clip0_10372_51854)">
<path d="M43.2893 8.07422C42.279 8.07422 41.4178 8.27089 40.4963 8.50879C39.8942 8.71111 39.3135 8.9725 38.7628 9.28913C38.6235 9.37272 38.4885 9.46324 38.3583 9.56034C40.5518 8.60871 40.758 8.45011 42.482 8.45011C44.5931 8.45121 46.6625 9.03862 48.4593 10.1469C50.2561 11.2551 51.7098 12.8406 52.6583 14.7266C53.6068 16.6127 54.0128 18.7251 53.8311 20.8283C53.6494 22.9316 52.8872 24.9431 51.6293 26.6385C50.3714 28.3339 48.6673 29.6466 46.7071 30.4303C44.7468 31.214 42.6074 31.4378 40.5274 31.0769C38.4474 30.7159 36.5085 29.7844 34.9269 28.386C33.3453 26.9877 32.1832 25.1776 31.5701 23.1575V23.4049C32.4204 26.1997 34.2436 28.5976 36.7093 30.1642C39.1751 31.7308 42.1204 32.3625 45.0117 31.945C47.9031 31.5274 50.5492 30.0881 52.471 27.8878C54.3927 25.6875 55.4628 22.8717 55.4876 19.9505C55.4337 13.3811 49.992 8.07422 43.2893 8.07422Z" fill="url(#paint0_linear_10372_51854)"/>
<path fill-rule="evenodd" clip-rule="evenodd" d="M49.632 15.0496C47.2021 17.6634 45.808 20.937 45.0911 24.642H41.8175C42.8484 20.8132 44.7454 17.6745 47.3909 15.14H44.6232L43.3655 16.025H45.1371C42.2124 18.7577 40.5963 22.3216 39.8048 26.412H36.5312C37.5653 22.5833 39.4591 19.4413 42.1109 16.9037H36.5122L37.1228 15.0591H41.7937L42.4059 13.2891H50.0189L47.7509 15.0242L49.632 15.0496Z" fill="url(#paint1_linear_10372_51854)"/>
<path d="M34.566 13.2075C34.1517 13.0543 33.7117 12.9827 33.2702 12.9966H32.9641L35.7064 11.0156L32.6929 12.9966L27.7112 16.2749L27.6699 16.3035L23.1529 19.2789L22.3598 19.796L19.0878 21.9498L16.7088 23.52L15.0973 24.5795L13.1291 25.8753L11.6509 26.8475H13.7968L15.0973 25.9086V26.8475H19.1021V26.083V23.0172L21.9062 20.9902L19.9713 25.9292L19.589 26.8919H28.5724C28.7088 26.8919 28.8404 26.8919 28.9705 26.8745C30.566 26.7539 31.6763 25.8901 32.3012 24.2829L32.4201 23.9657L33.2607 21.704C33.4479 21.1346 33.4748 20.6921 33.3384 20.3749C33.3233 20.3453 33.3063 20.3167 33.2877 20.2892C33.1451 20.0825 32.9687 19.9012 32.7659 19.7531C33.543 19.3535 34.0284 18.8623 34.2219 18.2797L34.6628 17.0981L35.2195 15.6025C35.5504 14.7619 35.5377 14.1153 35.1814 13.6627C35.0195 13.4599 34.8074 13.3029 34.566 13.2075ZM27.2274 17.4439L27.386 17.022L28.4201 16.2749H31.0529L30.2361 18.2829L26.9054 18.2734L27.2274 17.4439ZM28.225 23.658H27.451L27.4161 23.6754L27.4463 23.658H24.8991L25.3432 22.4764H25.3337L25.6842 21.5644H26.9102L27.018 21.5025L26.9118 21.5644H29.0323L28.685 22.4637L28.225 23.658Z" fill="white"/>
<path d="M30.7232 12.9987H23.2784L22.0175 16.2089H23.0071C23.0944 16.2009 23.1823 16.2155 23.2623 16.2514C23.3423 16.2872 23.4117 16.343 23.4639 16.4135C23.5082 16.4749 23.5345 16.5473 23.5401 16.6228L23.5591 16.6117L23.5416 16.6244C23.5448 16.6566 23.5448 16.689 23.5416 16.7212L21.8874 17.5792L21.8557 17.5967L21.004 18.0376L19.1007 19.0257V13.0082H14.2744L13.6812 13.8012L8.25853 21.1081L8.23315 21.1415L4 26.8512H10.0555L15.0896 23.6902L19.0944 21.1732L22.6122 18.9638L22.7185 18.8972L32.119 12.9987L38.6868 8.875L30.7232 12.9987ZM15.0896 21.1034L10.8914 23.2794L15.0896 17.2969V21.1034Z" fill="white"/>
</g>
<defs>
<linearGradient id="paint0_linear_10372_51854" x1="54.3869" y1="11.5873" x2="34.3234" y2="27.7951" gradientUnits="userSpaceOnUse">
<stop stop-color="#DEC0A0"/>
<stop offset="0.24" stop-color="#FFFEF5"/>
<stop offset="0.56" stop-color="#F0E3BD"/>
<stop offset="0.93" stop-color="#D3C18E"/>
</linearGradient>
<linearGradient id="paint1_linear_10372_51854" x1="49.7699" y1="11.4508" x2="35.2465" y2="25.5381" gradientUnits="userSpaceOnUse">
<stop stop-color="#DEC0A0"/>
<stop offset="0.24" stop-color="#FFFEF5"/>
<stop offset="0.56" stop-color="#F0E3BD"/>
<stop offset="0.93" stop-color="#D3C18E"/>
</linearGradient>
<clipPath id="clip0_10372_51854">
<rect width="51.4798" height="24" fill="white" transform="translate(4 8.07422)"/>
</clipPath>
</defs>
</svg>
